<svg width="342" height="395" viewBox="0 0 342 395" fill="none" xmlns="http://www.w3.org/2000/svg">
<path d="M189 6H329V0H189V6ZM182 211V13H176V211H182ZM13 224H169V218H13V224ZM6 382V231H0V382H6ZM329 389H13V395H329V389ZM336 239V382H342V239H336ZM336 221V239H342V221H336ZM336 13V221H342V13H336ZM329 395C336.18 395 342 389.18 342 382H336C336 385.866 332.866 389 329 389V395ZM0 382C0 389.18 5.8203 395 13 395V389C9.13401 389 6 385.866 6 382H0ZM13 218C5.8203 218 0 223.82 0 231H6C6 227.134 9.13401 224 13 224V218ZM176 211C176 214.866 172.866 218 169 218V224C176.18 224 182 218.18 182 211H176ZM329 6C332.866 6 336 9.13401 336 13H342C342 5.8203 336.18 0 329 0V6ZM189 0C181.82 0 176 5.8203 176 13H182C182 9.13401 185.134 6 189 6V0Z" fill="black"/>
</svg>
