<svg width="526" height="395" viewBox="0 0 526 395" fill="none" xmlns="http://www.w3.org/2000/svg">
<path d="M288.28 391.44L288.986 388.524L288.28 391.44ZM13 6H333V0H13V6ZM6 185V13H0V185H6ZM263 192H13V198H263V192ZM270 205V219H276V205H270ZM270 219V372H276V219H270ZM270 372V381H276V372H270ZM283 394H285.133V388H283V394ZM287.575 394.356C289.317 394.777 291.135 395 293 395V389C291.614 389 290.27 388.835 288.986 388.524L287.575 394.356ZM293 395H342.5V389H293V395ZM343.5 394H513V388H343.5V394ZM526 381V229H520V381H526ZM513 216H353V222H513V216ZM346 209V195H340V209H346ZM346 195V142H340V195H346ZM340 13V142H346V13H340ZM346 391.5C346 392.881 344.881 394 343.5 394V388C341.567 388 340 389.567 340 391.5H346ZM342.5 395C344.433 395 346 393.433 346 391.5H340C340 390.119 341.119 389 342.5 389V395ZM285.133 394C285.852 394 286.639 394.129 287.575 394.356L288.986 388.524C287.855 388.25 286.54 388 285.133 388V394ZM263 198C266.866 198 270 201.134 270 205H276C276 197.82 270.18 192 263 192V198ZM353 216C349.134 216 346 212.866 346 209H340C340 216.18 345.82 222 353 222V216ZM0 185C0 192.18 5.82029 198 13 198V192C9.134 192 6 188.866 6 185H0ZM270 381C270 388.18 275.82 394 283 394V388C279.134 388 276 384.866 276 381H270ZM526 229C526 221.82 520.18 216 513 216V222C516.866 222 520 225.134 520 229H526ZM333 6C336.866 6 340 9.13401 340 13H346C346 5.8203 340.18 0 333 0V6ZM513 394C520.18 394 526 388.18 526 381H520C520 384.866 516.866 388 513 388V394ZM13 0C5.8203 0 0 5.82029 0 13H6C6 9.134 9.13401 6 13 6V0Z" fill="black"/>
</svg>
