<svg width="54" height="59" viewBox="0 0 54 59" fill="none" xmlns="http://www.w3.org/2000/svg">
<path d="M26.55 0C26.55 0 27.7611 14.6887 27.9884 26.0843C34.5488 19.9026 43.2684 12.8124 43.2684 12.8124C43.2684 12.8124 36.1937 21.5128 30.0169 28.0707C40.2143 28.3195 53.1 29.5 53.1 29.5C53.1 29.5 40.1889 30.6828 29.9867 30.93C36.1635 37.4878 43.2377 46.1878 43.2377 46.1878C43.2377 46.1878 34.5448 39.1192 27.9879 32.9442C27.7591 44.3357 26.55 59 26.55 59C26.55 59 25.343 44.3601 25.1127 32.9726C18.5594 39.1409 9.89297 46.1878 9.89297 46.1878C9.89297 46.1878 16.9667 37.4885 23.1433 30.9308C12.9365 30.6851 0 29.5 0 29.5C0 29.5 12.9111 28.3172 23.1132 28.07C16.9365 21.5122 9.86228 12.8123 9.86228 12.8123C9.86228 12.8123 18.5552 19.8809 25.1121 26.0559C25.3409 14.6643 26.55 0 26.55 0Z" fill="url(#paint0_radial_267_2417)"/>
<defs>
<radialGradient id="paint0_radial_267_2417" cx="0" cy="0" r="1" gradientUnits="userSpaceOnUse" gradientTransform="translate(26.55 28.3938) rotate(57.4396) scale(36.3139 28.0945)">
<stop stop-color="white"/>
<stop offset="1" stop-color="white" stop-opacity="0.73"/>
</radialGradient>
</defs>
</svg>
