<svg width="11" height="11" viewBox="0 0 11 11" fill="none" xmlns="http://www.w3.org/2000/svg">
<path d="M9.85009 4.00349L8.53055 3.99665C8.51688 3.95562 8.5032 3.91461 8.48269 3.87358L9.39885 2.96425C9.47405 2.88904 9.47405 2.75913 9.39885 2.68393L7.92889 1.20713C7.85368 1.13192 7.72377 1.13192 7.64857 1.20713L6.74608 2.1028C6.69823 2.08228 6.64352 2.05493 6.58882 2.03442V0.790077C6.58882 0.680684 6.49995 0.591797 6.39056 0.591797H4.3121C4.20271 0.591797 4.11382 0.680684 4.11382 0.790077V2.03442C4.07964 2.0481 4.05229 2.05492 4.01811 2.0686L3.17715 1.18662C3.10195 1.10457 2.97888 1.10459 2.89683 1.17979L1.39269 2.6224C1.31064 2.6976 1.31064 2.82067 1.38584 2.90272L2.25415 3.81205C2.23364 3.86675 2.21313 3.92144 2.18579 3.97614L0.948274 3.95563C0.838882 3.95563 0.750005 4.03767 0.750005 4.14706L0.708984 6.22553C0.708984 6.33492 0.791028 6.42378 0.90042 6.42378L2.2063 6.45114C2.22681 6.49216 2.24048 6.53318 2.26099 6.5742L1.33799 7.46985C1.26278 7.54506 1.25595 7.66813 1.33116 7.75017L2.7806 9.24064C2.85581 9.31585 2.97888 9.32269 3.06092 9.24748L4.03862 8.30397C4.06596 8.31764 4.10015 8.32449 4.1275 8.33817L4.11382 9.67822C4.11382 9.78761 4.20271 9.8765 4.3121 9.8765L6.39056 9.90383C6.49995 9.90383 6.58882 9.81496 6.58882 9.70557L6.6025 8.32448C6.62985 8.31764 6.65036 8.30398 6.67771 8.29714L7.62806 9.26799C7.70326 9.3432 7.83317 9.35004 7.90838 9.26799L9.39201 7.8117C9.46722 7.73649 9.47406 7.60659 9.39201 7.53138L8.43483 6.55369C8.44851 6.52634 8.46217 6.499 8.46901 6.47165L9.80907 6.47849C9.91846 6.47849 10.0073 6.38961 10.0073 6.28021L10.021 4.20175C10.0484 4.09236 9.95948 4.00349 9.85009 4.00349ZM6.8418 5.18628C6.8418 5.99989 6.17861 6.66308 5.365 6.66308C4.55139 6.66308 3.8882 5.99989 3.8882 5.18628C3.8882 4.37268 4.55139 3.70948 5.365 3.70948C6.17861 3.70948 6.8418 4.36584 6.8418 5.18628Z" fill="#5D38FF" stroke="white" stroke-width="0.239539" stroke-miterlimit="10"/>
</svg>
