<svg width="8" height="9" viewBox="0 0 8 9" fill="none" xmlns="http://www.w3.org/2000/svg">
<path d="M7.44943 2.34697C7.51096 2.25125 7.552 2.13503 7.552 2.01196V1.26672C7.552 0.86334 7.17596 0.555657 6.77941 0.651375L2.55413 1.60173C2.26697 1.6701 2.06184 1.92307 2.06184 2.21706V2.9623C2.06184 3.08536 2.10288 3.20161 2.16441 3.29732V6.07998C1.95247 5.94324 1.70633 5.86803 1.43969 5.86803C0.694454 5.86803 0.0927734 6.46969 0.0927734 7.21493C0.0927734 7.96017 0.694454 8.56183 1.43969 8.56183C2.18493 8.56183 2.78657 7.96017 2.78657 7.21493C2.78657 7.13289 2.77974 7.04401 2.75923 6.96881V3.59131C2.78658 3.59131 2.80708 3.59131 2.83443 3.58447L6.85461 2.68197V4.49381C6.6495 4.3639 6.40337 4.28184 6.13673 4.28184C5.39149 4.28184 4.78981 4.8835 4.78981 5.62873C4.78981 6.37397 5.39149 6.97563 6.13673 6.97563C6.88196 6.97563 7.4836 6.37397 7.4836 5.62873C7.4836 5.5125 7.46309 5.40312 7.43574 5.29373C7.44258 5.26638 7.44943 5.24588 7.44943 5.21853V2.34697Z" fill="white"/>
</svg>
