<svg width="17" height="17" viewBox="0 0 17 17" fill="none" xmlns="http://www.w3.org/2000/svg">
<path d="M2.8437 11.4774L5.65487 14.2886C6.13096 14.7647 6.13096 15.5354 5.65487 16.0115C5.17879 16.4876 4.40796 16.4876 3.93188 16.0115L1.12074 13.2004C0.644651 12.7243 0.644651 11.9535 1.12074 11.4774C1.59682 11.0013 2.36761 11.0013 2.8437 11.4774ZM7.5592 3.06658C6.87908 3.7467 6.87908 4.86891 7.5592 5.54903L9.18015 7.16997L6.96978 9.38034L5.3488 7.7594C4.66868 7.07928 3.54651 7.07928 2.86639 7.7594C2.18627 8.43952 2.18627 9.56172 2.86639 10.2418L6.90177 14.2772C7.58189 14.9573 8.70409 14.9573 9.38421 14.2772C10.0643 13.5971 10.0643 12.4749 9.38421 11.7948L7.76323 10.1738L9.97364 7.96343L11.5946 9.58441C12.2747 10.2645 13.3969 10.2645 14.077 9.58441C14.7571 8.90429 14.7571 7.78208 14.077 7.10196L10.0416 3.06658C9.35019 2.37513 8.23932 2.37513 7.5592 3.06658ZM11.2885 1.32093C10.8125 1.79702 10.8125 2.56781 11.2885 3.04389L14.0997 5.85507C14.5758 6.33115 15.3466 6.33115 15.8227 5.85507C16.2988 5.37898 16.2988 4.60819 15.8227 4.13211L13.0115 1.32093C12.5354 0.844846 11.7646 0.844846 11.2885 1.32093Z" fill="url(#paint0_linear_267_2108)"/>
<defs>
<linearGradient id="paint0_linear_267_2108" x1="2.52709" y1="14.611" x2="14.4161" y2="2.72201" gradientUnits="userSpaceOnUse">
<stop stop-color="#2D60FF"/>
<stop offset="1" stop-color="#00D7DB"/>
</linearGradient>
</defs>
</svg>
